<?xml version="1.0" standalone="no"?>
<!DOCTYPE svg PUBLIC "-//W3C//DTD SVG 20010904//EN"
 "http://www.w3.org/TR/2001/REC-SVG-20010904/DTD/svg10.dtd">
<svg version="1.0" xmlns="http://www.w3.org/2000/svg"
 width="500.000000pt" height="500.000000pt" viewBox="0 0 500.000000 500.000000"
 preserveAspectRatio="xMidYMid meet">
<metadata>
Created by potrace 1.11, written by Peter Selinger 2001-2013
</metadata>
<g transform="translate(0.000000,500.000000) scale(0.100000,-0.100000)"
fill="#000000" stroke="none">
<path d="M2960 3745 c-138 -23 -300 -84 -366 -137 -16 -13 -58 -45 -94 -70
-36 -25 -96 -73 -135 -107 -38 -33 -85 -68 -105 -78 -42 -22 -123 -77 -168
-115 -24 -21 -28 -28 -15 -28 34 0 -3 -20 -49 -26 -40 -6 -47 -4 -50 12 -5 18
-5 18 -13 -1 -5 -11 -12 -22 -15 -25 -4 -3 -11 -18 -17 -35 -10 -31 -29 -44
-155 -107 -68 -34 -86 -50 -45 -41 20 4 20 3 4 -7 -10 -6 -25 -9 -33 -6 -21 8
-49 -4 -33 -15 13 -8 -65 -35 -90 -30 -7 1 -10 -2 -7 -8 4 -5 2 -12 -3 -15 -5
-4 -12 -2 -16 4 -4 6 -12 7 -18 3 -7 -4 -18 -8 -26 -10 -8 -1 -26 -10 -40 -20
-46 -33 -148 -83 -169 -83 -11 0 -42 -9 -69 -21 -26 -11 -61 -26 -78 -33 -80
-35 -117 -47 -200 -66 -49 -12 -110 -30 -134 -41 -24 -10 -47 -17 -51 -14 -5
3 -11 -1 -13 -7 -4 -10 -8 -9 -16 2 -6 8 -11 10 -11 5 0 -6 -17 -9 -39 -7 -35
3 -40 1 -43 -19 -4 -27 -56 -49 -68 -29 -12 19 -71 -4 -108 -43 -38 -40 -83
-136 -89 -191 -3 -30 1 -48 16 -66 19 -24 20 -24 85 -11 54 11 75 11 118 0 32
-8 100 -13 173 -12 109 2 484 -20 545 -32 52 -11 450 -35 570 -35 121 0 224
-17 315 -51 16 -6 39 -14 50 -19 11 -4 47 -14 80 -22 70 -18 215 -61 265 -79
372 -130 529 -202 625 -286 32 -28 40 -44 55 -110 39 -167 48 -364 30 -618
-21 -282 -48 -740 -54 -922 l-2 -73 583 0 583 0 0 68 c0 37 4 128 10 202 5 74
12 223 15 331 12 473 45 794 117 1154 58 287 65 332 87 514 13 103 16 162 10
178 -5 14 -6 29 -3 34 3 6 1 22 -4 37 -6 15 -18 60 -27 101 -25 108 -111 364
-147 435 -17 34 -50 92 -74 129 -24 37 -44 71 -44 75 0 4 -18 32 -41 61 -146
195 -295 308 -484 368 -167 53 -695 88 -875 58z m-760 -485 c-8 -5 -17 -7 -19
-4 -3 3 1 9 9 14 8 5 17 7 19 4 3 -3 -1 -9 -9 -14z m1050 -10 c17 0 40 -10 56
-25 14 -13 30 -23 34 -20 4 2 12 -7 18 -20 10 -21 9 -23 -6 -18 -9 3 -28 16
-42 29 -14 12 -45 26 -69 31 -25 4 -47 15 -49 22 -3 10 0 12 12 8 10 -4 31 -7
46 -7z m-1110 -19 c0 -12 -20 -25 -27 -18 -7 7 6 27 18 27 5 0 9 -4 9 -9z
m959 5 c-2 -2 -22 -9 -44 -15 -36 -9 -38 -9 -21 4 17 13 77 23 65 11z m200
-124 c-20 -31 -40 -17 -27 20 9 26 12 28 25 15 12 -12 13 -18 2 -35z m888 -33
c43 -10 63 -22 108 -68 37 -37 53 -61 50 -72 -4 -11 2 -23 15 -32 13 -9 18
-20 14 -30 -3 -9 1 -26 10 -39 9 -12 16 -33 16 -45 0 -13 4 -23 8 -23 13 0 55
-80 58 -113 3 -23 -3 -36 -24 -56 -32 -29 -46 -58 -32 -66 17 -10 11 -25 -10
-25 -15 0 -20 -7 -20 -25 0 -14 -4 -25 -10 -25 -5 0 -10 -7 -10 -15 0 -8 -4
-15 -10 -15 -5 0 -10 -7 -10 -15 0 -8 -9 -24 -20 -35 -11 -11 -15 -20 -10 -20
6 0 10 -4 10 -10 0 -5 -3 -10 -7 -9 -24 4 -51 -15 -48 -32 2 -10 0 -19 -4 -19
-16 0 -21 -44 -6 -53 25 -13 17 -29 -7 -16 -18 9 -21 9 -11 -1 14 -16 6 -40
-14 -40 -11 0 -14 -7 -11 -24 4 -19 0 -26 -17 -30 -13 -3 -25 -15 -28 -26 -3
-11 -9 -20 -14 -19 -21 3 -53 -15 -53 -31 0 -22 -60 -91 -72 -84 -5 3 -12 -3
-15 -14 -2 -11 -15 -23 -26 -26 -16 -4 -19 -8 -9 -14 17 -11 4 -42 -17 -42
-20 0 -61 -44 -61 -65 0 -8 -7 -15 -15 -15 -8 0 -15 -7 -15 -16 0 -11 -6 -13
-19 -9 -11 3 -22 1 -26 -5 -3 -5 -15 -10 -27 -10 -16 0 -18 -3 -9 -14 8 -9 8
-16 2 -20 -5 -4 -13 -1 -17 5 -4 8 -9 7 -15 -2 -7 -11 -9 -9 -9 5 0 23 -10 16
-14 -10 -3 -19 -26 -33 -26 -15 0 6 -5 11 -11 11 -5 0 -7 -4 -4 -10 3 -5 3
-10 0 -10 -10 0 -30 24 -33 40 -2 8 -7 17 -11 20 -5 3 -11 15 -15 28 -5 14
-15 22 -29 21 -12 0 -16 -3 -9 -6 6 -2 10 -9 6 -14 -3 -5 -1 -9 5 -9 18 0 34
-41 22 -53 -8 -8 -11 -6 -11 5 0 9 -10 20 -22 24 -13 3 -35 20 -50 36 -15 17
-32 27 -38 23 -6 -4 -17 1 -24 11 -9 11 -21 15 -35 11 -15 -4 -31 4 -55 27
-29 29 -34 31 -45 17 -9 -12 -13 -13 -17 -3 -4 9 -10 10 -19 2 -9 -7 -16 -6
-24 4 -7 8 -19 12 -27 9 -8 -3 -14 1 -14 11 0 13 -30 23 -43 14 -2 -2 -12 4
-22 12 -15 13 -19 12 -30 -3 -11 -15 -14 -16 -25 -2 -7 8 -19 15 -26 15 -8 0
-14 5 -14 12 0 6 -3 8 -7 5 -3 -4 -17 3 -30 15 -20 19 -25 20 -33 8 -6 -8 -8
-22 -5 -30 3 -10 0 -8 -9 4 -8 10 -19 15 -25 12 -5 -4 -12 2 -15 12 -8 23 -55
50 -64 37 -10 -14 -42 -18 -42 -5 0 5 -4 10 -10 10 -5 0 -7 -7 -4 -15 4 -8 2
-15 -4 -15 -5 0 -12 9 -15 20 -6 23 -27 27 -27 5 0 -8 -4 -15 -10 -15 -5 0
-10 5 -10 10 0 6 -9 20 -20 32 -17 19 -20 19 -26 5 -8 -21 -24 -22 -24 -2 0
10 -10 13 -36 11 -19 -1 -38 2 -41 7 -3 5 -9 4 -13 -3 -5 -9 -15 -6 -34 11
-27 24 -33 39 -15 39 6 0 20 11 30 24 12 15 26 22 38 19 13 -3 20 2 25 21 5
22 10 25 33 20 23 -6 25 -4 21 14 -5 17 0 21 28 26 23 5 34 13 36 28 2 13 11
23 23 24 46 6 60 12 58 25 -4 22 41 71 68 74 13 1 28 3 32 4 5 0 5 10 2 22 -6
19 -4 20 29 14 25 -5 36 -4 36 4 0 7 5 9 10 6 6 -3 10 -1 10 4 0 6 9 11 20 11
11 0 20 7 20 15 0 9 7 18 15 21 13 5 13 9 3 23 -10 13 -10 14 2 4 20 -19 44
-16 65 7 10 11 24 20 32 20 7 0 16 7 19 15 4 8 15 15 27 15 11 0 17 3 14 7
-11 10 14 33 37 33 17 0 18 2 6 10 -12 7 -10 11 10 18 14 5 31 7 38 4 7 -2 12
-1 11 4 -4 24 3 34 26 34 29 0 115 41 134 64 11 13 10 18 -3 31 -23 24 -20 33
10 27 22 -4 25 -2 20 14 -5 15 1 22 24 31 22 8 28 16 25 32 -2 13 1 21 11 21
8 0 14 -4 14 -10 0 -5 5 -10 11 -10 6 0 9 9 6 20 -3 11 -1 20 4 20 5 0 19 16
30 35 11 19 30 37 42 40 40 11 67 28 67 42 0 10 7 12 19 8 21 -6 61 28 61 51
0 16 237 10 317 -7z m-2867 -462 c0 -2 -13 -13 -30 -25 -21 -16 -30 -18 -30
-9 0 7 12 18 28 24 15 6 28 11 30 12 1 1 2 0 2 -2z m-620 -17 c-20 -13 -43
-13 -35 0 3 6 16 10 28 10 18 0 19 -2 7 -10z m2750 -800 c0 -5 -2 -10 -4 -10
-3 0 -8 5 -11 10 -3 6 -1 10 4 10 6 0 11 -4 11 -10z m76 -25 c10 -26 -1 -35
-13 -10 -6 14 -7 25 -2 25 5 0 12 -7 15 -15z"/>
<path d="M2721 2114 c0 -11 3 -14 6 -6 3 7 2 16 -1 19 -3 4 -6 -2 -5 -13z"/>
</g>
</svg>
